<?xml version="1.0" encoding="UTF-8" standalone="no"?>
<svg width="31px" height="31px" viewBox="0 0 31 31" version="1.1" xmlns="http://www.w3.org/2000/svg" xmlns:xlink="http://www.w3.org/1999/xlink">
    <!-- Generator: Sketch 48.2 (47327) - http://www.bohemiancoding.com/sketch -->
    <title>Mask</title>
    <desc>Created with Sketch.</desc>
    <defs>
        <path d="M20.4915487,15.4574336 L30.1445723,25.1104572 C30.8329204,25.7988053 30.8329204,26.9252065 30.1445723,27.6134071 L27.5879351,30.1701917 C26.899587,30.8585398 25.7731858,30.8585398 25.0848378,30.1701917 L15.4318142,20.5171681 L5.77879056,30.1701917 C5.09044248,30.8585398 3.9640413,30.8585398 3.27569322,30.1701917 L0.719056047,27.6134071 C0.0307079646,26.9252065 0.0307079646,25.7988053 0.719056047,25.1104572 L10.3720796,15.4574336 L0.719056047,5.80441003 C0.0307079646,5.11606195 0.0307079646,3.98966077 0.719056047,3.30131268 L3.27584071,0.744675516 C3.9640413,0.0563274336 5.09044248,0.0563274336 5.77879056,0.744675516 L15.4318142,10.3976991 L25.0848378,0.744675516 C25.7731858,0.0563274336 26.899587,0.0563274336 27.5879351,0.744675516 L30.1445723,3.30131268 C30.8329204,3.98966077 30.8329204,5.11606195 30.1445723,5.80441003 L20.4915487,15.4574336 Z" id="path-1"></path>
    </defs>
    <g id="close" stroke="none" stroke-width="1" fill="none" fill-rule="evenodd" transform="translate(-10.000000, -10.000000)">
        <g id="Color-/-5vf-/-Primary--Copy" transform="translate(10.000000, 10.000000)">
            <mask id="mask-2" fill="white">
                <use xlink:href="#path-1"></use>
            </mask>
            <use id="Mask" fill="#ffffff" xlink:href="#path-1"></use>
        </g>
    </g>
</svg>